<svg xmlns="http://www.w3.org/2000/svg" viewBox="0 0 153.51 112.97"><defs><style>.cls-1{fill:#4d0000;}.cls-2{fill:#630000;}.cls-3{fill:#7f0b0b;}.cls-4{fill:#fcd4d4;}.cls-5{fill:#2d0000;}.cls-6{fill:#442221;}.cls-7{fill:#542e2c;}.cls-8{fill:#5b3433;}.cls-9{fill:#fff;}.cls-10{fill:#a0a0a0;}.cls-11{fill:#2b0f0e;}.cls-12{fill:#c99b89;}.cls-13{fill:#d8aea3;}.cls-14{fill:#f9efed;}.cls-15{fill:#b27866;}.cls-16{fill:#fceae6;}.cls-17{fill:#c6c6c6;}.cls-18{fill:#dddbdb;}.cls-19{fill:#9b9a9a;}</style></defs><g id="Layer_2" data-name="Layer 2"><g id="Layer_2-2" data-name="Layer 2"><path class="cls-1" d="M51.53,40.41C59.85,57.83,61.87,74.21,56,77s-17.29-9.08-25.61-26.5-10.34-33.8-4.51-36.58S43.21,23,51.53,40.41Z"/><path class="cls-2" d="M47.11,59.76c7.44-2.13,7.58-9.73,5.38-17.29-.31-.68-.63-1.37-1-2.06C43.21,23,31.75,11.13,25.92,13.91c-4.63,2.21-4.31,13,.17,26C30.44,50.07,36.54,63,47.11,59.76Z"/><path class="cls-3" d="M27.68,15.13c1,9,13.69,36.35,17.71,40.43s8.34-5.41,6.18-12.8C49.88,37,36.82,13.33,27.68,15.13Z"/><path class="cls-4" d="M27.08,14.24s5-1.68,15.24,11.73,12.13,23.9,7.3,30c2.53-6.07,1.63-13.69-5.87-25.72C38.5,21.78,31.44,13.91,27.08,14.24Z"/><path class="cls-5" d="M54.18,77.57c-6.38,0-16.44-11.36-23.91-27-4-8.45-6.72-16.91-7.58-23.84s.26-11.59,3.15-13a4.63,4.63,0,0,1,1.94-.42c6.38,0,16.44,11.36,23.91,27C60,57.81,62,74.33,56.12,77.15A4.48,4.48,0,0,1,54.18,77.57ZM27.78,13.68a4.08,4.08,0,0,0-1.79.39C23.25,15.38,22.2,19.86,23,26.69S26.57,42,30.58,50.42c7.3,15.28,17.44,26.8,23.6,26.8A4.22,4.22,0,0,0,56,76.84c5.73-2.74,3.67-19.05-4.59-36.35C44.08,25.2,33.94,13.68,27.78,13.68Z"/><path class="cls-6" d="M56,77c-5.83,2.79-17.29-9.08-25.61-26.5s-10.34-33.8-4.51-36.58C24.39,24.73,49.36,71.38,56,77Z"/><path class="cls-7" d="M44.74,60.22C35.52,44,24.91,21.08,25.92,13.91c-4.63,2.21-4.31,13,.17,26C30.11,49.29,35.61,61,44.74,60.22Z"/><path class="cls-8" d="M25.11,15.39a9.94,9.94,0,0,0-1.59,4.08,5.72,5.72,0,0,1,1.59-1A12.35,12.35,0,0,1,25.11,15.39Z"/><path class="cls-8" d="M25.66,20.51a3.9,3.9,0,0,0-2.29,2.31c-.19.69-.11,4.91,1,4.91s-.2-3.46,1.94-4.71A21.68,21.68,0,0,0,25.66,20.51Z"/><path class="cls-8" d="M27.8,27.9a4.92,4.92,0,0,0-3.15,3c-.46,1.13,1,7.66,2.45,7.72s-.57-5,2.61-6.56C29.39,30.57,28.41,28.22,27.8,27.9Z"/><path class="cls-8" d="M32.05,38c-.64.44-3.76,2.67-4.11,3.82s2.58,7.25,3.82,7.25-.32-4.77,2.4-6C34,41.35,32.66,38.43,32.05,38Z"/><path class="cls-8" d="M37.42,48.72c-1.41.72-3.77,2.37-3.86,3.26s4,5.12,4.88,5,1.25-2.12,1.85-2.42C39.71,53.05,38.23,49.27,37.42,48.72Z"/><path class="cls-9" d="M27.63,23.5c-1.2.3-2.64,1.6-1.64,4.4a18.77,18.77,0,0,1,2.51-1.85C28.25,25.36,27.63,23.5,27.63,23.5Z"/><path class="cls-10" d="M25.91,28.2,25.83,28a4,4,0,0,1,0-3.28,2.74,2.74,0,0,1,1.76-1.35l.15,0,.05.15s.63,1.86.87,2.55l.05.14-.13.07A15.66,15.66,0,0,0,26.11,28Zm1.61-4.49a2.37,2.37,0,0,0-1.38,1.14,3.54,3.54,0,0,0-.07,2.76A16.93,16.93,0,0,1,28.29,26C28.07,25.34,27.66,24.14,27.52,23.71Z"/><path class="cls-9" d="M31,32.59l1.7,3.93a32.14,32.14,0,0,0-3.31,2.28C28.16,36.2,28.64,33.37,31,32.59Z"/><path class="cls-10" d="M29.37,39.08l-.1-.2a5.59,5.59,0,0,1-.37-4.56A3.3,3.3,0,0,1,31,32.43l.15,0,1.54,4,.15.29a24.73,24.73,0,0,0-3.15,2ZM31,32.81a3,3,0,0,0-1.73,1.64,5.19,5.19,0,0,0,.27,4.07,36.67,36.67,0,0,1,3-2.07Z"/><path class="cls-9" d="M36,43.58,37.69,47A36.67,36.67,0,0,0,34,49.87C32.84,48.1,32.47,44.81,36,43.58Z"/><path class="cls-10" d="M33.94,50.15,33.82,50a4.89,4.89,0,0,1-.6-4.06A4.15,4.15,0,0,1,36,43.42l.15-.05L37.91,47l-.13.08A31.66,31.66,0,0,0,34,49.59Zm2-6.35A3.73,3.73,0,0,0,33.55,46,4.59,4.59,0,0,0,34,49.59c.8-.73,2.8-2.23,3.46-2.67Z"/><path class="cls-9" d="M42,55.19,43.49,58a18.07,18.07,0,0,0-2.85,2.49A3.29,3.29,0,0,1,42,55.19Z"/><path class="cls-10" d="M40.64,60.77l-.14-.17A3.47,3.47,0,0,1,41.89,55L42,55l1.68,3.07-.13.09a18.65,18.65,0,0,0-2.82,2.46Zm1.24-5.35a3.08,3.08,0,0,0-1.23,4.8A17.76,17.76,0,0,1,43.27,58Z"/><path class="cls-9" d="M47.64,65.2l2,3.21A17.36,17.36,0,0,0,48.05,70C46.72,68.93,45.49,66.2,47.64,65.2Z"/><path class="cls-10" d="M48.08,70.29l-.14-.12a4.41,4.41,0,0,1-1.62-3.51A2,2,0,0,1,47.57,65l.14-.06,2.13,3.46-.11.1a16.89,16.89,0,0,0-1.54,1.61Zm-.5-4.86a1.63,1.63,0,0,0-.92,1.28A4,4,0,0,0,48,69.79c.34-.41,1-1.08,1.36-1.42Z"/><path class="cls-11" d="M54.18,77.57c-6.38,0-16.44-11.36-23.91-27-4-8.45-6.72-16.91-7.58-23.84s.26-11.59,3.15-13l.29-.13,0,.32c-.66,4.66,3.81,17.15,12,33.39,7.09,14.12,14.87,26.82,18.09,29.53l.21.17-.24.12A4.48,4.48,0,0,1,54.18,77.57ZM25.71,14.22C23.17,15.7,22.23,20.1,23,26.69c.85,6.89,3.53,15.32,7.54,23.73,7.3,15.28,17.44,26.8,23.6,26.8a4.09,4.09,0,0,0,1.54-.28C49.09,70.85,24.66,25.85,25.71,14.22Z"/><path class="cls-5" d="M46.39,73.35l-.33-.11c0-.09,2.95-8.94,13.24-7.42l0,.34C49.25,64.68,46.41,73.26,46.39,73.35Z"/><path class="cls-5" d="M38.43,64.12,38.11,64c0-.1,4.24-10.41,19-9.31l0,.34C42.59,54,38.47,64,38.43,64.12Z"/><path class="cls-5" d="M31.7,52.86l-.3-.18c.06-.11,6.5-10.64,21.72-9l0,.35C38.08,42.42,31.76,52.75,31.7,52.86Z"/><path class="cls-5" d="M26.88,41.84l-.29-.18c.06-.09,6.12-9.69,21.65-7.79l-.05.34C32.89,32.34,26.94,41.75,26.88,41.84Z"/><path class="cls-5" d="M23.67,30.75l-.3-.18A17.29,17.29,0,0,1,41.76,24l-.08.34A16.91,16.91,0,0,0,23.67,30.75Z"/><path class="cls-5" d="M22.74,22.21l-.3-.17c0-.06,3.6-6.07,13.31-4.61l0,.34C26.23,16.34,22.77,22.15,22.74,22.21Z"/><path class="cls-12" d="M62.81,86.12c-.77,3.52-9.33,4.65-19.13,2.52S26.57,81.93,27.33,78.4s9.33-4.65,19.13-2.52S63.57,82.59,62.81,86.12Z"/><path class="cls-13" d="M31.44,82.71a51.88,51.88,0,0,1,7.26-.53,20.14,20.14,0,0,0-3.63,2.71A17.1,17.1,0,0,1,31.44,82.71Z"/><path class="cls-13" d="M37.57,85.58s13.74,4.79,23.5,2.27c-1.22-2.29-13.73-5.14-16.62-5.15C41.51,83.08,37.57,85.58,37.57,85.58Z"/><path class="cls-13" d="M58.4,81s-5.27-2.74-5.72-2.6a30.27,30.27,0,0,0-6.62,1.8C48.06,81,56.29,84.29,58.4,81Z"/><path class="cls-13" d="M48.62,77.1S40.35,75,36.55,75.54c.85,1.13,5.09,3,6.4,3.31A22,22,0,0,1,48.62,77.1Z"/><path class="cls-13" d="M33.75,76s4,3.77,7.42,4.42c-1.43,0-3.73.28-5-.09-2.47-1.19-4.64-2.85-5-3.68C31.54,76.15,33.75,76,33.75,76Z"/><path class="cls-13" d="M29.43,77.15s2.17,3,3.74,3.55c-1.06,0-4.28.25-4.28.25C28.29,80.05,27.5,77.85,29.43,77.15Z"/><path class="cls-14" d="M28.89,78.05c-1.06,2.9,4.47,8,16.79,9.5a.88.88,0,0,0,.79-.82C37.18,86.33,28.36,81.41,28.89,78.05Z"/><path class="cls-15" d="M53,89.89a44.92,44.92,0,0,1-9.4-1.08C33.77,86.67,26.38,82,27.16,78.37c.51-2.34,4.23-3.74,9.94-3.74a44.76,44.76,0,0,1,9.39,1.08C56.37,77.85,63.76,82.54,63,86.15,62.47,88.49,58.75,89.89,53,89.89ZM37.1,75c-5.46,0-9.13,1.33-9.6,3.47-.74,3.43,6.53,7.93,16.22,10A44.12,44.12,0,0,0,53,89.55c5.45,0,9.13-1.33,9.6-3.47.74-3.43-6.53-7.93-16.22-10A44.86,44.86,0,0,0,37.1,75Z"/><path class="cls-15" d="M62.83,85.47c-6.89-.37-23.42-4.9-28.86-10.4l.25-.24C39.6,80.27,56,84.76,62.85,85.12Z"/><path class="cls-15" d="M28.92,82.18l0-.35c.12,0,12.19-1,18.72-.08l0,.34C41.07,81.15,29,82.17,28.92,82.18Z"/><path class="cls-15" d="M36.84,81.74c-3.78-.86-7.26-5.37-7.41-5.56l.28-.22c0,.05,3.55,4.61,7.2,5.44Z"/><path class="cls-15" d="M35.11,86l-.23-.26s4.18-3.59,8.79-4.32l.06.35C39.21,82.47,35.15,86,35.11,86Z"/><path class="cls-12" d="M91.62,91.47c0,3.67-17,8.28-38.27,12.11-24.44,4.39-39.93-1.51-39.93-6.74,0-5.06,16-10.06,37.62-11.54S91.62,89.72,91.62,91.47Z"/><path class="cls-13" d="M27.92,97.3c-4.62.83-8.49,1.75-10.24,2.74a53.59,53.59,0,0,0,5.54,2.14A18.51,18.51,0,0,1,27.92,97.3Z"/><path class="cls-13" d="M34.4,96.27A22.73,22.73,0,0,0,26.3,103a10.88,10.88,0,0,0,3.07.23c5.37-2.94,17.52-7.72,24.27-9.21C50.42,94.33,42.25,95.14,34.4,96.27Z"/><path class="cls-13" d="M71.65,91.5c-2.26.11-11.7,2.83-12.92,3.2a39,39,0,0,0,5.43,1.62C67.51,95,70.68,93.17,74,91.78Z"/><path class="cls-13" d="M67.81,97.08a36.23,36.23,0,0,0,8.07.7c3.79-.69,9.54-3.25,9.72-3.9-1.24-.58-5-1.21-8.38-1.67A58.61,58.61,0,0,0,67.81,97.08Z"/><path class="cls-13" d="M34.51,103.86c2.49,0,6.3-.22,10.56-.59a20.39,20.39,0,0,1,4-5.55C43.52,99.63,36.77,102.1,34.51,103.86Z"/><path class="cls-13" d="M55.6,95.5l-2.3.79a20.68,20.68,0,0,0-3.62,6.53,90.92,90.92,0,0,0,17.45-3.35S59.3,98.17,55.6,95.5Z"/><path class="cls-14" d="M86,92.68c0-.48-15,6-34.07,8.11s-31,.58-37-3.41c4.49,5.44,18.19,6.88,37.28,4.8S86,93.16,86,92.68Z"/><path class="cls-13" d="M22.08,97.07a54.32,54.32,0,0,0-6.85,1.54c-1.33-1.42-.58-3.68,1.3-4.6A15,15,0,0,0,22.08,97.07Z"/><path class="cls-13" d="M18.18,92.87s3.7,3.22,7.12,3.12c3.8-.8,8.82-1.6,11.25-1.81-2.45-.2-8-3.29-9.44-4.46C24.07,90.57,20.18,91.53,18.18,92.87Z"/><path class="cls-13" d="M30.2,89.09s4.42,2.1,5.81,2.23a26.52,26.52,0,0,1,4.16-4A39,39,0,0,0,30.2,89.09Z"/><path class="cls-13" d="M44.65,86.58s-4,2.57-5.2,5.06c1.18,1.1,12,1.13,15.88.43C51.36,91.41,45.78,87.68,44.65,86.58Z"/><path class="cls-13" d="M49.51,86.58s6.8,4.17,11.28,4.74a22,22,0,0,0,5.06-.49c-1.63-1-7.21-4.71-7.21-4.71A33.49,33.49,0,0,0,49.51,86.58Z"/><path class="cls-15" d="M37.06,105.29c-14.91,0-23.81-4.3-23.81-8.45,0-5.2,16.24-10.24,37.78-11.72,2.29-.15,4.64-.23,7-.23,17.81,0,31.75,4.33,33.52,6.1a.75.75,0,0,1,.25.48c0,4.85-26.87,10.2-38.42,12.28A93,93,0,0,1,37.06,105.29ZM58,85.23c-2.35,0-4.7.08-7,.24-10.39.71-19.93,2.29-26.87,4.42s-10.59,4.58-10.59,7c0,3.9,9,8.1,23.47,8.1a93.29,93.29,0,0,0,16.26-1.53c23.87-4.29,38.12-8.76,38.13-11.94,0,0,0-.09-.15-.23C89.47,89.41,75,85.23,58,85.23Z"/><path class="cls-15" d="M15,99.85l-.13-.32C26.76,95,73.4,90,91.64,91.3l0,.35C73.41,90.3,26.85,95.29,15,99.85Z"/><path class="cls-15" d="M29,104.79l-.15-.31c.19-.1,18.88-9.14,38.23-12.72l.07.34C47.82,95.67,29.17,104.7,29,104.79Z"/><path class="cls-15" d="M46.11,104.72l-.3-.18c0-.06,4-6.61,6.82-9.19l.24.26C50.11,98.16,46.15,104.66,46.11,104.72Z"/><path class="cls-15" d="M24.14,103.86l-.29-.19c0-.06,3.76-5.81,9.31-8.17l.13.32C27.85,98.14,24.18,103.8,24.14,103.86Z"/><path class="cls-15" d="M25.1,97.24a12.36,12.36,0,0,1-8.44-4.35l.27-.21a12,12,0,0,0,8.19,4.22Z"/><path class="cls-15" d="M44.23,94.3c-8.6-.42-17-5.26-17-5.31l.18-.3c.08,0,8.37,4.85,16.87,5.27Z"/><path class="cls-15" d="M60.73,92.59a38,38,0,0,1-14.88-6.73l.22-.28a37.43,37.43,0,0,0,14.72,6.67Z"/><path class="cls-15" d="M36.85,92.87l-.3-.17a20.5,20.5,0,0,1,7.07-6.9l.16.31A20.18,20.18,0,0,0,36.85,92.87Z"/><path class="cls-15" d="M74.14,99A38.49,38.49,0,0,1,56,94.67l.18-.3a38.47,38.47,0,0,0,19.74,4.21v.35C75.29,99,74.71,99,74.14,99Z"/><path class="cls-15" d="M64.47,97.78l-.2-.28c5.56-3.84,20.58-6.4,20.73-6.42l.06.34C84.91,91.45,70,94,64.47,97.78Z"/><path class="cls-6" d="M76.13,73.29c-1.62-2.2-10-12.49-15.37-16.88C59.48,49,51.07,13.46,42.32.1,51,12,59.37,39.87,61.79,54.77c5.55,3.95,15.38,14.24,18.5,18C79.83,74,76.13,73.29,76.13,73.29Z"/><path class="cls-7" d="M77.46,72.3c-1.62-2.2-11.36-11.5-16.7-15.89C59.48,49,51.07,13.46,42.32.1,51,12,59.37,39.87,61.79,54.77c5.55,3.95,15.38,14.24,18.5,18C79.83,74,77.46,72.3,77.46,72.3Z"/><path class="cls-11" d="M78.29,73.67a13,13,0,0,1-2.19-.21H76l0,0C74.16,70.9,65.8,60.78,60.65,56.54l0,0v-.06c-1.35-7.79-9.72-43-18.41-56.24l.28-.2C51.23,12,59.54,39.89,62,54.67c5.47,3.92,15.19,14,18.47,18l.07.08,0,.1C80.24,73.41,79.51,73.67,78.29,73.67Zm-2.07-.54a12.63,12.63,0,0,0,2.07.19c.95,0,1.58-.17,1.79-.48-3.35-4.07-13-14.09-18.39-17.93l-.06,0v-.08C59.54,42,53,19.13,45.53,5.56,53.05,21.22,59.7,49.32,60.92,56.31,66.06,60.56,74.31,70.55,76.22,73.13Z"/><path class="cls-6" d="M82.89,71.9a81.22,81.22,0,0,1,2.31-7.84,76.6,76.6,0,0,1-6.76-11.29c1.79-1.45,3.06-5.44,1.27-11a13.55,13.55,0,0,1,.17,11.38c1.65,0,1.74,3.77,6.71,10.16.4,1.79.29,9-.46,9.65C85.26,74.1,83.12,73.29,82.89,71.9Z"/><path class="cls-7" d="M82.89,71.9a81.22,81.22,0,0,1,2.31-7.84,76.6,76.6,0,0,1-6.76-11.29c1.79-1.45,3.06-5.44,1.27-11a13.55,13.55,0,0,1,.17,11.38c1.65,0,.92,4,5.9,10.37.4,1.79.06,8.63-.69,9.27C84.23,73.92,83.12,73.29,82.89,71.9Z"/><path class="cls-11" d="M85,73.66a2.29,2.29,0,0,1-2.23-1.73v-.07c.06-.25,1.46-5.86,2.28-7.77a76.91,76.91,0,0,1-6.72-11.25l0-.12.1-.09c1.79-1.45,2.94-5.46,1.22-10.82L79,40.17l.84,1.5A13.65,13.65,0,0,1,80.14,53c.75.17,1.19,1.07,1.93,2.6a39.93,39.93,0,0,0,4.66,7.6l0,.07c.38,1.66.34,9-.5,9.81A1.62,1.62,0,0,1,85,73.66ZM83.07,71.9A2,2,0,0,0,85,73.32a1.26,1.26,0,0,0,1-.49l0,0c.62-.54.82-7.52.41-9.45a39.58,39.58,0,0,1-4.67-7.63c-.77-1.57-1.19-2.43-1.88-2.43h-.27l.12-.25a13.64,13.64,0,0,0,.86-8.25c.54,3.87-.48,6.75-1.94,8a76.16,76.16,0,0,0,6.68,11.12l.08.08,0,.11A78.48,78.48,0,0,0,83.07,71.9Z"/><path class="cls-6" d="M94,76.87c.23-3,5.14-12.14,8.15-15.55C100.93,59.47,94.91,52,94,49.7a8,8,0,0,0,2.19-8.84c1.51,2,.77,6.82-.73,9,2-.17,2.43,4,8.83,11.39.06,2.26-5.78,12.78-6.19,15.9A2.58,2.58,0,0,1,94,76.87Z"/><path class="cls-7" d="M94,76.87c.23-3,5.14-12.14,8.15-15.55C100.93,59.47,94.91,52,94,49.7a8,8,0,0,0,2.19-8.84c1.51,2,.77,6.82-.73,9,2-.17,1.68,3.83,8.08,11.28.06,2.25-6.16,12.46-6.56,15.58C95.81,77.83,95.09,78.49,94,76.87Z"/><path class="cls-11" d="M96,78.21A2.62,2.62,0,0,1,93.85,77l0,0v-.06c.24-3.13,5.14-12.12,8.1-15.55-.42-.63-1.28-1.77-2.27-3.09-2.19-2.91-5.19-6.91-5.82-8.45l0-.12.1-.08A7.88,7.88,0,0,0,96,40.93l-.64-1.43.93,1.25c1.44,1.94.9,6.55-.56,9,.91.13,1.55,1.18,2.63,3a57.38,57.38,0,0,0,6,8.44l0,.05v.06c0,1.18-1.44,4.43-3,7.86-1.46,3.22-3,6.55-3.17,8.06v.06l-.05,0A3.18,3.18,0,0,1,96,78.21Zm-1.87-1.39a2.22,2.22,0,0,0,1.87,1,2.87,2.87,0,0,0,1.89-.79c.23-1.58,1.74-4.89,3.2-8.1s3-6.48,3-7.64a56.87,56.87,0,0,1-6-8.44C97,51,96.35,50,95.46,50.05l-.36,0,.21-.3a10.74,10.74,0,0,0,1.51-5.08,8.38,8.38,0,0,1-2.62,5c.71,1.59,3.61,5.43,5.73,8.26,1,1.4,2,2.61,2.35,3.21l.08.12-.09.09C99.41,64.68,94.46,73.74,94.17,76.82Z"/><path class="cls-6" d="M98.66,84.92c-1.52,9.21-12.11,11.57-24.54,9.64S52.54,85.2,53.66,78s12.11-11.57,24.53-9.64S100.11,76.1,98.66,84.92Z"/><path class="cls-7" d="M98.66,84.92c-1.52,9.21-46.12.28-45-7s12.11-11.57,24.53-9.64S100.11,76.1,98.66,84.92Z"/><path class="cls-8" d="M98.5,83.21c-.78,3.46-10.77,4.14-22.3,1.52S56,77.18,56.74,73.72s12-6.81,23.55-4.19S99.29,79.75,98.5,83.21Z"/><path class="cls-11" d="M81.69,95.36a50.33,50.33,0,0,1-7.59-.62,32.66,32.66,0,0,1-15.4-6.35c-3.91-3.18-5.77-6.9-5.21-10.47.93-6,8.68-10.25,18.84-10.25a39.26,39.26,0,0,1,5.89.46c8.76,1.36,15.59,4.62,18.72,9A10.17,10.17,0,0,1,98.83,85C97.72,91.66,91.63,95.36,81.69,95.36ZM72.33,68c-10,0-17.59,4.1-18.5,10-.53,3.44,1.27,7,5.09,10.14a32.19,32.19,0,0,0,15.23,6.27,48.54,48.54,0,0,0,7.54.62c9.75,0,15.72-3.59,16.79-10.12a9.79,9.79,0,0,0-1.82-7.6c-3.08-4.26-9.82-7.47-18.49-8.81A37.45,37.45,0,0,0,72.33,68Z"/><path class="cls-6" d="M76.18,84.68c3.91,1.4,6-.66,2.23-3.51s-28.82-11.35-34.92-13C36.82,59.53,13.81,32.59.11,24.14,9.65,32,35.73,57.84,42.32,69.55,50.79,72.82,67.55,81.58,76.18,84.68Z"/><path class="cls-7" d="M75.88,82.65c3.9,1.4,5,.41,2.53-1.48-3.78-2.9-28.82-11.35-34.92-13C36.82,59.53,13.81,32.59.11,24.14c9.54,7.87,36,33,42.57,44.72C51.15,72.13,67.24,79.55,75.88,82.65Z"/><path class="cls-16" d="M77,80.94c-.07.18-5.11-1.56-11.26-3.88s-11.08-4.36-11-4.54S59.83,74.07,66,76.4,77.06,80.75,77,80.94Z"/><path class="cls-11" d="M78.47,85.3h0a7.16,7.16,0,0,1-2.34-.46c-4.64-1.66-11.63-5-18.39-8.15-5.94-2.81-11.56-5.46-15.48-7l-.06,0,0,0C35.49,57.77,9,31.67,0,24.27L.2,24C14,32.48,36.77,59.2,43.59,68.05c6,1.61,31.06,10.09,34.92,13,1.57,1.18,2.3,2.35,2,3.24C80.3,84.92,79.56,85.3,78.47,85.3Zm-36-15.89c3.93,1.52,9.53,4.17,15.45,7,6.75,3.19,13.73,6.49,18.35,8.14a6.84,6.84,0,0,0,2.23.45h0c.91,0,1.56-.3,1.72-.8.24-.72-.46-1.79-1.88-2.85-3.85-2.88-28.94-11.37-34.86-12.94l-.06,0,0,0C37,60,16.27,35.71,2.42,25.88,12.9,35.08,36.18,58.35,42.44,69.41Z"/><path class="cls-6" d="M81.91,82.94c3.09,1.39,5.26-.93,2.25-3.47S69.31,73.62,65.66,70c.29-2.88,1.45-13.34.75-16.12-2.31-1.85-7-3.24-10.81-9.65C56,47,61.48,53.15,64.77,54.63c-3.11.58.14,13.92-.26,16.4C68,73.75,76.24,80.4,81.91,82.94Z"/><path class="cls-7" d="M81.57,81.35c3.09,1.38,4.64-.4,2.59-1.88C81,77.17,69.31,73.62,65.66,70c.29-2.88,1.45-13.34.75-16.12-2.31-1.85-7-3.24-10.81-9.65C56,47,61.48,53.15,64.77,54.63c-1.32.35.56,13.35.16,15.84C68.39,73.18,75.91,78.8,81.57,81.35Z"/><path class="cls-16" d="M83,79.08a26.89,26.89,0,0,1-3.84-1.56,30.65,30.65,0,0,1-3.72-1.83,27.5,27.5,0,0,1,3.84,1.55A28.23,28.23,0,0,1,83,79.08Z"/><path class="cls-11" d="M83.68,83.53a4.6,4.6,0,0,1-1.84-.43c-5.29-2.37-12.67-8.18-16.64-11.3l-.88-.7,0-.1a27.67,27.67,0,0,0-.42-5c-.6-4.65-1.34-10.36.42-11.42-3.4-1.79-8.57-7.73-8.91-10.33l-.1-.83.42.72a22,22,0,0,0,8.6,8.19,17.79,17.79,0,0,1,2.17,1.42l0,0v.06c.65,2.59-.27,11.55-.66,15.38l-.08.72c2,2,6.64,3.86,10.69,5.55,3.29,1.37,6.4,2.67,7.74,3.81s1.74,2.14,1.41,3A2,2,0,0,1,83.68,83.53ZM64.69,71l.73.57c3.67,2.89,11.31,8.9,16.56,11.25a4.24,4.24,0,0,0,1.7.4,1.64,1.64,0,0,0,1.67-.91c.28-.75-.21-1.75-1.3-2.67-1.31-1.1-4.39-2.39-7.65-3.75-4.13-1.72-8.8-3.67-10.86-5.69l-.06,0,.09-.88c.36-3.46,1.29-12.6.69-15.21a18.62,18.62,0,0,0-2.09-1.35,22.62,22.62,0,0,1-8-7.15c1.39,3,5.81,7.67,8.66,9l.5.22-.54.1c-2,.37-1.14,6.63-.55,11.2A28.76,28.76,0,0,1,64.69,71Z"/><path class="cls-6" d="M88,80.81c2.94,1.68,5.32-.42,2.57-3.24S80,72.69,76.71,68.78c.1-3.25-.87-15.07-1.29-17.9-2.13-2.07-6.72-4.33-9.9-11.08.08,2.74,5.63,9.5,8.77,11.29C72,52.17,75.55,67.3,75.42,70,78.61,73.08,82.61,77.74,88,80.81Z"/><path class="cls-7" d="M87.86,79.09c2.94,1.67,4.11,0,2.72-1.52-2.66-2.9-10.59-4.88-13.87-8.79.1-3.25-.87-15.07-1.29-17.9-2.13-2.07-6.72-4.33-9.9-11.08.08,2.74,5.63,9.5,8.77,11.29C73,52,76.11,66.3,76,69,79.17,72.07,82.47,76,87.86,79.09Z"/><path class="cls-16" d="M89.76,77.45a20.71,20.71,0,0,1-2.84-1.36,20.72,20.72,0,0,1-2.73-1.57A20.71,20.71,0,0,1,87,75.88,20.72,20.72,0,0,1,89.76,77.45Z"/><path class="cls-11" d="M90,81.58h0A4.27,4.27,0,0,1,87.92,81c-4.26-2.43-7.7-5.88-10.46-8.66-.76-.76-1.48-1.49-2.16-2.13l-.06-.06V70a41.92,41.92,0,0,0-.7-5.58C73.49,57.88,72.73,52.32,74,51.1c-3.24-2-8.54-8.56-8.62-11.29l0-.84.36.76a24.42,24.42,0,0,0,8,9.46c.73.58,1.37,1.07,1.88,1.56l0,0v.06C76,53.56,77,65.28,76.88,68.72c1.81,2.12,5.07,3.73,8,5.16,2.38,1.18,4.63,2.3,5.88,3.57,1.08,1.11,1.49,2.24,1.13,3.1A1.85,1.85,0,0,1,90,81.58ZM75.59,70c.67.64,1.37,1.34,2.12,2.09,2.74,2.76,6.16,6.2,10.38,8.6a3.93,3.93,0,0,0,1.92.57,1.53,1.53,0,0,0,1.51-.81c.31-.73-.08-1.72-1.06-2.73-1.2-1.23-3.43-2.33-5.79-3.5-2.93-1.45-6.25-3.1-8.1-5.3l0,0v-.06c.11-3.32-.86-15-1.28-17.82a23,23,0,0,0-1.8-1.49,25.42,25.42,0,0,1-7.32-8.09c1.38,3.13,5.67,8.09,8.25,9.56l.29.16-.31.15c-1.46.68-.27,8.18.52,13.15A47.16,47.16,0,0,1,75.59,70Z"/><path class="cls-6" d="M136,84.25c0,10.78-9.73,19.52-21.73,19.52S92.54,95,92.54,84.25s8.81-19.5,20.81-19.5c3.12-14.24,26.48-48.35,39.31-50.2-10.8,6.34-27.74,35.32-31.22,51.26C129.93,68.47,136,75.72,136,84.25Z"/><path class="cls-7" d="M133.39,84.89c-2,14.39-38.19,15.61-40.85-.64,0-10.78,8.81-19.5,20.81-19.5,3.12-14.24,26.48-48.35,39.31-50.2-16.18,8.68-29.94,35.15-33.41,51.09C127.73,68.3,134.54,76,133.39,84.89Z"/><path class="cls-8" d="M97.4,84c-1-4.51-.43-7.75,4.8-10.59,1.38-1.15-.81-3.17,2.48-6.33C99,69.46,95.14,74,95.14,79.24a10.89,10.89,0,0,0,1.39,5.27A1.07,1.07,0,0,1,97.4,84Z"/><path class="cls-8" d="M117.84,65.81C119.83,53.2,130,35,138.09,26.35c-9,7.36-22.42,28.61-24.61,39.07a24.24,24.24,0,0,0-4.4.41c-5.21,3.12-1.83,6.69-3.56,9s-4.67,2.67-5.61,4.87c-.67,1.59.47,4.44.61,6.77a1.9,1.9,0,0,1-1.12,1.62,21.08,21.08,0,0,0,14.08,5c10.13,0,18.34-6.18,18.34-13.82C131.82,72.74,125.86,67.29,117.84,65.81Z"/><path class="cls-11" d="M114.28,103.94c-12.08,0-21.91-8.83-21.91-19.69a19,19,0,0,1,6-13.92,21.54,21.54,0,0,1,14.88-5.75c1.59-7,8-18.9,16-29.68,9.07-12.2,17.6-19.68,23.41-20.52l.87-.12-.76.44c-11,6.48-27.64,35.39-31.11,51,8.71,2.79,14.55,10.23,14.55,18.55C136.19,95.11,126.36,103.94,114.28,103.94Zm-.93-39c-11.57,0-20.63,8.49-20.63,19.33,0,10.66,9.67,19.34,21.56,19.34s21.56-8.68,21.56-19.34C135.84,76,130,68.69,121.39,66l-.15,0,0-.15c3.33-15.26,19.38-43.45,30.5-50.87-5.63,1.45-13.85,8.88-22.26,20.2-8,10.81-14.47,22.74-16,29.68l0,.13Z"/><path class="cls-11" d="M97,87.1a3.43,3.43,0,0,0,1.66-3.7l-.09-.35c-.62-2.34-1.15-4.36,1-5.79.43-.28.9-.57,1.35-.84,1.8-1.1,3.67-2.22,3.26-3.74-.57-2.18-.58-6.09,5.89-7.87l.09.33c-6.18,1.7-6.19,5.4-5.64,7.45.47,1.77-1.51,3-3.42,4.12-.45.28-.92.56-1.33.84-1.93,1.29-1.47,3-.83,5.41l.09.35C99.66,85.94,97,87.1,97,87.1Z"/><path class="cls-17" d="M121.41,79.65c1.21,4.94-1.26,9.78-5.51,10.83s-8.69-2.11-9.9-7,1.26-9.78,5.51-10.82S120.2,74.72,121.41,79.65Z"/><path class="cls-18" d="M121.41,79.65c1.19,9-13,11.2-15.41,3.78-1.21-4.93,1.26-9.78,5.51-10.82S120.2,74.72,121.41,79.65Z"/><path class="cls-9" d="M121.41,79.65c1.21,4.94-14.2,8.72-15.41,3.78s1.26-9.78,5.51-10.82S120.2,74.72,121.41,79.65Z"/><path class="cls-17" d="M115.14,74.44A39.56,39.56,0,0,0,112.69,80a56,56,0,0,0-6,.29c1.34.18,4.86.43,5.51.76a40.11,40.11,0,0,0-.45,6.4c.21-1.42,1-5.91,1.49-6.48A59.81,59.81,0,0,1,119.83,82a25.8,25.8,0,0,0-6.24-1.87C113.85,78.89,114.79,75.45,115.14,74.44Z"/><path class="cls-19" d="M114.25,90.85c-3.83,0-7.37-3.1-8.42-7.38a10.13,10.13,0,0,1,.72-7,7.56,7.56,0,0,1,4.92-4,6.85,6.85,0,0,1,1.69-.2c3.83,0,7.37,3.1,8.42,7.37,1.23,5-1.3,10-5.64,11A7.37,7.37,0,0,1,114.25,90.85Zm-1.09-18.27a6.76,6.76,0,0,0-1.61.2,7.21,7.21,0,0,0-4.69,3.86,9.74,9.74,0,0,0-.69,6.75c1,4.12,4.41,7.11,8.08,7.11a6.75,6.75,0,0,0,1.61-.19c4.15-1,6.57-5.78,5.38-10.62C120.23,75.57,116.83,72.58,113.16,72.58Z"/><path class="cls-17" d="M133.85,74.54c1.88,4.29.73,8.94-2.57,10.38s-7.49-.87-9.37-5.16-.73-8.94,2.57-10.38S132,70.25,133.85,74.54Z"/><path class="cls-18" d="M133.85,74.54c2.85,7-6.76,12.56-11.94,5.22-1.88-4.29-.73-8.94,2.57-10.38S132,70.25,133.85,74.54Z"/><path class="cls-9" d="M133.85,74.54c1.88,4.29-10.06,9.51-11.94,5.22s-.73-8.94,2.57-10.38S132,70.25,133.85,74.54Z"/><path class="cls-17" d="M129.05,69.53a21.65,21.65,0,0,0-1.65,5.22,25.33,25.33,0,0,0-5.8-1.3c1.6.6,4.94,1.79,5.58,2.12a67,67,0,0,0,.51,7c.2-1.42,0-5.93.5-6.5.95,0,4.41,2.31,5.13,2.55a23.86,23.86,0,0,0-5-3.48A33.57,33.57,0,0,1,129.05,69.53Z"/><path class="cls-19" d="M129.2,85.52c-3,0-6-2.28-7.45-5.69a10,10,0,0,1-.66-6.37,6,6,0,0,1,3.32-4.24,5.44,5.44,0,0,1,2.15-.44c3,0,6,2.28,7.45,5.69,1.92,4.37.72,9.13-2.66,10.61A5.4,5.4,0,0,1,129.2,85.52Zm-2.64-16.4a4.93,4.93,0,0,0-2,.42,5.7,5.7,0,0,0-3.13,4,9.73,9.73,0,0,0,.65,6.14c1.43,3.28,4.3,5.49,7.13,5.49a4.89,4.89,0,0,0,2-.42c3.21-1.4,4.32-6,2.48-10.15C132.26,71.33,129.39,69.12,126.56,69.12Z"/><path class="cls-19" d="M113.06,80.61A66.32,66.32,0,0,1,119.83,82a40.6,40.6,0,0,0-6.68-1.74,48.48,48.48,0,0,1,2-5.67,28.15,28.15,0,0,0-2.34,5.63,27.63,27.63,0,0,0-6.08,0,46.63,46.63,0,0,1,6,.32,39.41,39.41,0,0,0-.93,6.84A67.47,67.47,0,0,1,113.06,80.61Z"/><path class="cls-19" d="M127.93,75.63a54.88,54.88,0,0,1,5.39,3A36.08,36.08,0,0,0,128,75.27c.27-2.41,1.08-5.7,1.08-5.74a31.07,31.07,0,0,0-1.48,5.57,40.78,40.78,0,0,0-6-1.65s3.67,1,5.93,2a45.9,45.9,0,0,0,.21,6.83S127.69,78.07,127.93,75.63Z"/><path d="M127.71,113a39.78,39.78,0,0,0,0-11.33,38.81,38.81,0,0,0-3.81-10.82c-.21-.41-.47-.88-.62-1.15s.14-.46.3-.17.42.77.64,1.19A39.1,39.1,0,0,1,128,101.58,33.42,33.42,0,0,1,127.71,113Z"/><path d="M128.31,106.94c-.46,1-2.12,1.6-2.12,1.6s1.76-1,1.91-2.1l.09-.6.24.56a6.07,6.07,0,0,0,2.12,2.49A4.36,4.36,0,0,1,128.31,106.94Z"/><path d="M126.64,105.72s1.39-1.57,1.24-2.69l-.14-1,.47.92a4.82,4.82,0,0,0,2.32,2.13,3.77,3.77,0,0,1-2.33-1.47A4.43,4.43,0,0,1,126.64,105.72Z"/><path d="M126.16,101.71a3.8,3.8,0,0,0,1.16-2l.05-.44.26.35a3.53,3.53,0,0,0,1.83,1.48,2.15,2.15,0,0,1-1.88-1A2.94,2.94,0,0,1,126.16,101.71Z"/><path d="M125.56,98.82a3.67,3.67,0,0,0,.68-2.61l-.12-.64.42.5a3,3,0,0,0,2.08,1.18,2.1,2.1,0,0,1-2-.58A2.94,2.94,0,0,1,125.56,98.82Z"/><path d="M124.4,95.72a8.16,8.16,0,0,0,.33-3.18l-.08-.57.38.43a4.41,4.41,0,0,0,2.43,1.44,3.16,3.16,0,0,1-2.34-.85A5.49,5.49,0,0,1,124.4,95.72Z"/><path d="M150.35,102.37a39.76,39.76,0,0,0-8-8,38.78,38.78,0,0,0-10.33-5c-.44-.14-.94-.3-1.24-.38s-.23-.43.09-.33.84.24,1.29.39a39.17,39.17,0,0,1,10.4,5A33.75,33.75,0,0,1,150.35,102.37Z"/><path d="M146.53,97.67a4.12,4.12,0,0,1-.38,2.64s.53-2-.11-2.85l-.37-.49.57.23a6,6,0,0,0,3.26.28A4.37,4.37,0,0,1,146.53,97.67Z"/><path d="M144.48,98s-.11-2.09-1-2.78l-.81-.63,1,.33a5,5,0,0,0,3.15-.12,3.74,3.74,0,0,1-2.68.6A4.35,4.35,0,0,1,144.48,98Z"/><path d="M141.32,95.48a3.85,3.85,0,0,0-.57-2.23l-.27-.35.43.07a3.48,3.48,0,0,0,2.34-.24,2.13,2.13,0,0,1-2,.63A2.94,2.94,0,0,1,141.32,95.48Z"/><path d="M138.86,93.84a3.59,3.59,0,0,0-1.35-2.32l-.54-.38.65.06a3.06,3.06,0,0,0,2.3-.62,2.06,2.06,0,0,1-1.81,1A2.93,2.93,0,0,1,138.86,93.84Z"/><path d="M135.86,92.46a8.4,8.4,0,0,0-2-2.49l-.46-.35.58,0A4.42,4.42,0,0,0,136.7,89a3.1,3.1,0,0,1-2.26,1A5.61,5.61,0,0,1,135.86,92.46Z"/><path class="cls-15" d="M43.36,80.29,43,80.15c.12-.09,3.33-2.32,9.72-2.66l0,.35C46.4,78.17,43.39,80.27,43.36,80.29Z"/></g></g></svg>