<?xml version="1.0" encoding="UTF-8"?>
<svg id="Layer_3" data-name="Layer 3" xmlns="http://www.w3.org/2000/svg" viewBox="0 0 965.81 798.57">
  <defs>
    <style>
      .cls-1 {
        fill: #bd9487;
      }

      .cls-2 {
        fill: #fff;
      }

      .cls-3 {
        fill: #5d3132;
      }

      .cls-4 {
        fill: #821518;
      }

      .cls-5 {
        fill: #4e2627;
      }

      .cls-6 {
        fill: #2f191b;
      }

      .cls-7 {
        fill: #e1cac2;
      }
    </style>
  </defs>
  <path class="cls-3" d="M510.61,332.93s-65.7-8.1-99.4,0-261.19,67.85-359.23,243.25c0,0-35.76,73.53-17.21,98.81s63.93,34.47,115.25,5.36,83.48-48.35,192.23-147.06,177.73-140.93,177.73-140.93l-9.36-59.43Z"/>
  <path class="cls-2" d="M430.11,403.95l-51.08,40.31s27.57,41.53,42.13,23.15,8.95-63.46,8.95-63.46Z"/>
  <path class="cls-2" d="M346.86,530.99c-18.38,29.11-50.55-26.81-50.55-26.81l42.89-32.07,7.66,41.77v17.11Z"/>
  <path class="cls-2" d="M244.99,542.48l-64.19,39.09s35.08,61.25,70.32,32.91l10.72-9.19-16.85-62.81Z"/>
  <path class="cls-3" d="M947.29,548.16c-16-56.14-51.72-107.69-90.22-150.62-6.5-7.52-8.76-8.38-14.58.54-5.2,7.37-9.79,16.05-17.07,21.39-4.88,3.97-13.55,9.93-5.25,15.63,48.08,32.8,91.8,74.94,121.73,125.39,3.95,6.23,7.43,14.06,10.69,20.38.57.88.92.94,1.04.14-.24-10.93-3.51-22.2-6.29-32.66l-.06-.2Z"/>
  <path class="cls-5" d="M952.59,580.87s-28.57-101.64-120.68-167.68l-24.71,16.62,39.06,32.24,33.63,32.17,37.61,41.36,35.09,45.29Z"/>
  <path class="cls-4" d="M430.11,403.95c-2.47-18.01-8.27-35.53-17.77-51.13-5.28-8.98-11.46-13.53-22.03-10.37-25.99,7.41-62.94,18.11-89.63,31.46-11.85,5.65-27.65,12.53-37.97,17.7-15.83,9.09-47.77,27.8-58.9,34.22-12.08,7.6-27.51,19.59-39.18,27.83-14.61,12.73-33.42,30.2-48.57,43.73-6.79,5.9-12.12,13.74-18.42,20.91-10.61,12.53-20.59,24.61-29.71,38.22-10.68,15.8-19.99,32.64-26.82,50.04-1.38,3.6-2.75,7.39-3.29,11.19-2.1,13.57,12.58,13.28,22.16,12.66,29.83-1.72,58.03-12,85.04-24.03,12.06-5.47,24.95-10.02,35.47-15.69,15.73-8.9,34.56-18.92,49.53-27.74,11.45-7.03,30.05-18.44,42.79-26.26,36.89-24.83,72.65-50.55,108.02-76.85,9.84-7.74,20.06-14.55,30.28-21.85,12.94-8.89,21.54-16.69,19.04-33.86l-.02-.2Z"/>
  <path class="cls-7" d="M565.49,303.17l-.14-.31c-2.61-5.55-6.41-9.89-10.09-14.09l-.09-.1c-.58-.67-1.17-1.34-1.82-2.09-8.8-9.85-18.91-19.78-28.69-29.38l-1.05-1.03c-20.09-19.29-46.71-44.49-74.37-68.3-39.32-35.85-82.73-70.04-129.07-101.65l-5.17-3.36c-18.87-12.27-38.38-24.96-58.96-35.45-18.3-9.16-38.22-17.62-60.91-25.87-19.66-7.03-39.27-11.69-59.93-14.23-1.3-.17-2.58-.36-3.95-.56-4.15-.61-8.44-1.25-13.01-1.26-3.56.02-7.08.39-10.48.74l-3.33.33c-7.38.73-15.02,1.49-22.41,3.8-23.13,6.78-39.16,23.76-41.84,44.27-3.17,22.74,7.36,45.94,18.59,64.94l-2.51,1.77c-1.3-.41-2.68-.62-4.14-.62-1.7,0-3.56.28-5.62.83-8.57,2.17-16.41,7.15-21.57,10.71-19.6,13.61-25.36,39.42-14,62.83l.08.16c5.64,10.48,11.31,18.84,17.31,25.52l.96,1.1c2.96,3.41,6.02,6.93,9.59,9.86,1.88,1.58,3.81,3.03,5.69,4.44,1.26.95,2.51,1.89,3.72,2.85,1.46,1.17,2.93,2.36,4.39,3.56,4.01,3.27,8.17,6.66,12.43,9.69,6.51,4.83,13.24,8.22,20.37,11.82l2.32,1.17c1.29.69,2.56,1.38,3.84,2.07,6.89,3.73,14.01,7.59,21.78,10.42,3.33,1.24,6.81,2.6,9.89,3.8,8.8,3.43,17.9,6.97,27.41,9.64,3.71.95,7.41,1.93,11.12,2.92,11.86,3.16,24.12,6.42,36.54,8.47,48.6,9.83,96.32,14.81,141.83,14.81h0c3.41,0,6.82-.03,10.12-.08,1.7,0,3.32-.02,4.76-.21h0s33.31-4.7,33.31-4.7c5.44,1.09,10.84,2.15,16.2,3.18l3.35.65c3.45.66,6.82,1.32,10.16,1.98,9.47,1.88,18.42,3.65,28.34,5.02,20.12,2.74,50.53,6.89,75.71,6.89h0c12.31,0,22.35-.93,30.76-2.86l.17-.04c6.27-1.72,10.73-5.06,12.89-9.66,1.39-2.97,2.44-7.88-.51-14.38Z"/>
  <path class="cls-6" d="M415.81,311.35h-.03s.91,0,.85,0c-.1-.02-.66-.01-.82,0Z"/>
  <ellipse class="cls-6" cx="785.84" cy="366.1" rx="29.81" ry="26.26"/>
  <path class="cls-1" d="M108.94,9.18c.1-.19.28-.24.55-.31,1.37-.34,5.72-.6,9.46-.06,7.31,1.04,13.58,5.02,19.75,9.34,38.8,27.82,56.6,76.2,87.27,111.91,6.71,7.95,12.78,13.51,21.36,19.31,37.5,24.17,80.44,39.67,118.74,62.75,2.18,1.27,6.46,3.56,7.99,3.26,1.13-.18.61-1.83-1.14-4.39-8.83-12.28-22.8-29.42-31.68-42.79-17.27-25.02-34.03-50.78-50.05-76.37-3.74-6.03-8-13-10.49-19.46-2.76-7.85,5.67-1.5,8.68,2.27,2.31,2.64,4.02,5.68,5.75,8.74,19.03,33.99,41.32,66.09,63.37,98.17,14.34,20.73,30.08,41.72,51.82,55.09,44.63,25.09,105.27,57.15,149.45,81.78.11.1.2.2.26.3.37.6-.01,1.45-1.57,2.24-.24.12-.5.23-.79.34-1.79.69-4.46.85-7.12-.03-3.6-1.13-6.76-3.37-9.94-5.39-5.57-3.49-11.28-7.03-17-10.53-11.86-7.13-22.72-13.71-35.36-19.48-52.87-25.7-99.6,13.57-147.69,7.94-2.53-.43-8.95-2.64-4.68-3.66,30.48-5.25,101.19-17.28,117.99-20.17.37-.06.69-.12.97-.19.76-.19,1.2-.31,1.02-.84-1.03-1.32-3.88-2.6-7.76-4.8-8.75-4.78-17.48-9.68-26.31-14.28-67.59-38.15-123.73-21.7-194.81-16.47-11.47.32-23.59,1.7-34.65-1.36-4.87-1.13-15.87-6.53-5.41-6.3,58.86,6.08,118.2-15.65,176.78-4.12,5.97.43,1.1-2.71-1.74-4.24-41.79-21.12-82.03-45.44-125.03-64.09-39.86-15.63-80.25-4.48-121.43-5.31-6.08-.08-11.96-.48-18-1.21-6.22-.8-14.12-1.36-17.59-3.6-.72-.43-1.29-.97-1.66-1.62-.71-1.38.34-2.73,2.58-3.28,1.98-.49,4.95-.4,7.26-.23,36.2,2.64,73.63,1.04,110.16-2.95,2.98-.42,3.42-.75,1.9-1.55C164.41,114.78,61.3,60.72,46.58,53c-3.3-1.39-3.17-6.07-1.54-8.86,3.05-5.21,9.89-1.78,14.09.52,34.71,17.63,67.48,38.29,101.63,56.9,12.01,6.23,32.02,16.61,43.09,22.36,3.9,1.86,6.51,3.81,7.35,3.13.3-1.08-3.12-5.35-4.18-7.13-5.91-8.64-11.75-17.4-17.46-26.19-8.8-13.22-16.48-27.11-26.47-39.66-13.27-16.88-30.29-30.96-48.66-41.81-.71-.37-1.44-.71-2.13-1.04-2.06-.97-3.4-1.64-3.36-2.02v-.03Z"/>
  <path class="cls-6" d="M965.71,595.81c-3.61-61.9-36.05-122.92-72.66-171.34-3.96-5.24-28.75-32.61-29.25-34.83-.35-1.57,7.93-24.84,8.73-30.91,3.94-29.85-4.22-59.94-21.47-84.28-1.86-2.62-12.04-12.89-12.24-13.79-.97-4.42,6.63-43.05,8.14-50.48,10.26-50.33,29.07-97.27,47.68-144.81-3.05.32-4.73,4.97-6.16,7.33-22.25,36.66-34.43,85.41-45.34,126.66l-9.98,57-25.52-18.49c-4.14-44.37-8.21-89.36-6.08-133.99.33-6.95,6.82-53.32,5.08-55.5-.76-.95-2.21.75-2.78,1.71-2.13,3.61-5.58,29.92-6.2,35.8-5.15,49.35-1.74,101.46,4.97,150.47-18.82-8.62-37.05-11.69-57.45-14.03-3.61-.42-7.81,1.04-10.61.61-3.37-.52-19.92-10.76-25.95-13.05-64.07-24.36-134.59-7.21-175.48,48.46-62.31-60.51-128.01-120.89-199.78-170.2C270.2,44.73,162.42-15.88,83.63,3.83,26.07,18.24,24.72,70.72,50.66,115.34c-57.47,12.44-64.19,63.77-29.51,106.02,75.25,91.68,248.54,102.14,358.06,102.04,14.95-.01,30.72-3.13,45.44,1.94-136.06,25.98-291.4,109.56-366.4,229.1-76.39,121.75-23.62,191.14,109.43,123.43,93.99-47.83,167.21-135.63,248.97-200.52-11.74,31.53-24.48,52.54-16.7,87.21,15.61,69.56,39.7,83.07,9.18,158.75-9.11,22.58-30.96,53.22-37.05,72.95-.33,1.08-1.03,2.94,1.07,2.08,3.92-1.6,35.03-49.3,38.79-56.27,17.45-32.35,29.66-65.17,22.8-102.29-4.67-25.26-27.66-77.09-26.07-97.89,1.01-13.2,20.87-68.56,28.15-79.89,1.16-1.81,30.55-26.2,31.84-24.65,3.04,3.65-29.19,78.75-25.02,91.53,8.45,52.6,39.24,106.17,38.06,160-.35,16.22-4.55,33.89-5.07,49.93-.04,1.18-.81,12.23,2.02,9.53,2.28-2.17,10.92-39.21,11.74-44.78,3.06-20.93,2.13-39.78-2.02-60.41-5.81-28.86-34-96.03-32.63-119.15,1.59-26.91,25.24-70.41,30.72-98.37,1.76-2.78,27.91-20.52,29.7-20.3,1.8.22,14.58,28.11,18.29,31.34-7.28,19.87-16.13,40.86-20.28,61.67-13.79,69.25,43.03,139.85,43.59,208.49.07,9.27-8.23,65.82-6.08,68.5.81,1.01,2.19-.76,2.74-1.75,4.21-7.54,12.74-51.86,13.29-61.71,4.05-72.62-56.26-147.37-40.13-214.33,1.3-5.4,13.95-50.04,16.6-50.19,1.73-.1,20.95,21.36,26.28,22.59-21.63,61.96,12.56,122.09,29.48,180.62,5.21,18.03,11.02,36.15,10.71,55.25-.16,9.99-11.04,62-8.97,64.51,1.93,2.34,6.32-10.71,6.74-11.75,40.88-102.52-37.85-161.52-32.72-250.72.2-3.49,4.76-30.49,5.99-31.52,1.1-.93,22.57,9.5,26.78,10.71,41.22,11.9,84.17,6.41,120.73-15.69,6.24-3.78,23.22-18.39,27.22-19.78,4.57-1.58,13.31-1.39,19.07-2.93,5.53-1.47,27.43-9.56,30.2-8.9,3.77.9,19.06,11.83,23.3,14.77,48.58,33.73,98.36,90.5,122.15,144.85,4.44,10.15,7.26,23.65,11.43,32.57.38.81.6,3.26,2.1,1.39,1.17-1.47,1.3-33.48,1.06-37.55ZM350.32,311.64c-50.74.82-101.32-4.6-150.91-14.64-15.98-2.62-31.59-7.29-47.28-11.3-12.55-3.53-24.56-8.71-36.72-13.25-8.79-3.21-16.65-7.76-24.93-12.18-7.75-3.93-15.15-7.46-21.99-12.54-5.76-4.1-11.2-8.75-16.66-13.12-3.07-2.44-6.31-4.69-9.32-7.22-3.6-2.96-6.71-6.67-9.91-10.34-6.58-7.33-11.95-15.87-16.59-24.49-9.42-19.4-6.06-42.99,12.16-55.64,5.92-4.08,12.65-8.08,19.74-9.87,5.03-1.36,8.56-.88,11.42,3.91,6.83,10.25,13.87,20.65,21.69,30.22,4.43,5.24,9.39,10,14.29,15,8.15,8.43,16.44,16.42,25.66,23.72,10,7.31,20.5,14.46,30.55,21.6,2.53,1.75,5.11,3.28,7.78,4.83,7.54,4.31,15.66,10.08,23.32,14.71,20.12,10.69,45.56,22.86,65.44,32.91l.09.04c15.41,6.52,88.24,30.34,106.34,36.92,1.83.67-.38.71-4.15.73ZM55.9,127.24c.06,0,.12.01.17.03.02,0,.05.03.08.06-.08-.03-.16-.06-.25-.09ZM150.42,674.8c-19.29,8.7-48.53,17.97-72.89,17.97h0c-15.49,0-27.07-3.73-34.43-11.09-4.96-5.27-7.92-14.07-8.29-24.71-.55-16.76,4.32-33.44,8.62-46.1,8.68-24.93,23.71-50.84,45.94-79.2,4.88-6.3,8.06-7.62,9.87-7.62.99,0,1.94.4,2.9,1.22l.11.09c2.95,2.29,6.02,7.68,8.99,12.88.63,1.1,1.25,2.2,1.88,3.28,3.21,5.61,5.79,10.18,8.09,14.36,7.7,13.99,13.27,25.24,18.03,36.48,4.76,10.89,8.33,22.24,11.78,33.21,1.67,5.29,3.39,10.77,5.24,16.16l.07.19c5.84,16.28,8.67,26.55-5.91,32.88ZM237.15,618.91c-1.24.88-2.45,1.75-3.61,2.61-4.36,3.08-8.99,6.46-13.9,10.05-13.96,10.21-29.77,21.78-43.05,28.52-.42.14-.81.21-1.14.21h0c-2.57,0-4.18-5.72-5.25-9.51-.35-1.25-.69-2.44-1.05-3.49-5.69-19.72-12.83-42.78-22.65-64.33-5.85-13.23-12.96-25.03-20.5-37.53-3.17-5.26-6.46-10.71-9.61-16.23-1.89-3.27-3.84-6.68-5.35-9.55-3.62-6.92-3.77-8.92-.96-12.61,2.52-3.32,7.09-7.89,11.66-12.33,17.29-16.45,35.56-32.37,50.12-43.66,5.67-4.65,9.98-6.79,13.6-6.79,4.47,0,8.84,3.45,14.62,11.54,22.58,30.25,34.14,64.58,42.49,94.17l.07.23c2.87,9.91,5.84,20.17,7.96,30.11.24,1.15.5,2.32.76,3.49,1,4.51,2.04,9.18,2.1,13.65.32,9.58-8.13,15.61-16.32,21.45ZM327.83,541.2c-.81.8-1.65,1.62-2.49,2.46-8.42,8.59-18.64,17.08-28.53,25.28-4.69,3.9-9.55,7.93-14.06,11.85-1.71,1.45-3.31,2.82-4.8,4.09-6.53,5.58-12.19,10.42-14.07,10.72-.95-1.2-1.87-6.63-2.76-11.9-.58-3.43-1.24-7.32-2.15-11.92-10.31-45.18-23.57-79.42-41.75-107.84-2.36-3.75-5.24-7.78-8.02-11.68-3.17-4.45-6.46-9.05-8.82-13.04-2.39-3.96-1.78-5.39-1.58-5.86.63-1.49,2.8-2.95,5.05-4.3,21.39-13.23,68.31-40.49,85.75-47.75,1.17-.47,2.56-.97,3.76-.97.54,0,1.03.1,1.49.31,2.19.98,4.91,4.64,5.8,5.85,3.15,4.29,7.05,10.47,10.69,16.94l.1.18c16.96,31.03,24.47,65.61,30.51,107.98,1.75,14.04-4.56,20.23-14.11,29.61ZM426.39,452.14c-2.27,5.38-7.27,9.74-12.1,13.95-.7.61-1.4,1.22-2.09,1.83-9.18,8.02-18.94,16.25-27.49,23.15-8.02,6.55-14.88,12.58-20.98,18.45-2.47,2.35-5.31,4.99-7.64,6.42-1.46.9-2.28,1.03-2.64,1.03-.17,0-.28-.03-.35-.06-2.06-1.28-2.91-7.35-3.36-10.63-.07-.51-.14-.99-.21-1.45-.71-5.63-1.57-12.25-2.59-18.75-5.89-37.23-14.62-65.6-27.48-89.28-.97-1.88-2.07-3.9-3.13-5.85-1.94-3.56-3.95-7.25-5.44-10.59-1.48-3.13-1.88-5.4-1.25-7.01.72-1.82,2.96-3.36,7.49-5.14,17.14-6.87,48.12-17.3,69.08-23.25.86-.22,1.74-.46,2.57-.69,3.29-.89,5.89-1.6,8.09-1.6,1.8,0,3.36.49,5.03,1.59l.05.04c4.17,3.03,7.62,9.48,10.39,14.67,8.86,16.87,14.16,37.04,15.75,59.95.33,5.29.52,11.51.53,17.5-.02,5.12-.21,10.99-2.23,15.72ZM506.69,396.76c-4.14,3.01-8.22,5.75-12.54,8.64-2.38,1.59-4.78,3.2-7.19,4.86l-2.62,1.77c-10.82,7.32-23.35,15.8-33.35,22.55-3.44,2.44-6.34,3.73-7.56,3.82-.63-.57-.94-1.73-1.4-4.19-.36-2.16-.59-4.99-.75-7.22-.76-24.74-5.43-44.51-15.14-64.09-.83-1.81-1.79-3.75-2.71-5.62-1.69-3.42-3.43-6.96-4.72-10.28-1.18-3.16-1.14-4.73-.88-5.49,1.3-2.8,7.29-3.91,11.67-4.72,1.39-.26,2.7-.5,3.88-.79,9.89-2.03,19.59-3.06,28.82-3.06,5.56,0,11.07.37,16.38,1.11,2.11.33,4.39.54,6.58.74,5.33.49,10.85,1,14.93,3.38l.03.02c2.17,1.49,3.58,4.4,4.59,9.44.8,4.27,1.57,9.62,2.3,14.79.38,2.63.74,5.23,1.11,7.63.22,1.54.45,3.1.68,4.64.57,3.86,1.11,7.5,1.54,11.18.78,5.91-.07,8.45-3.65,10.89ZM551.61,321.74c-26.76,6.15-70.1.54-104.37-4.13-13.27-1.84-25.18-4.48-38.21-6.96-20.22-3.91-40.43-7.69-60.84-13.63-7.07-2-13.25-4.6-20.3-6.24-32.79-7.87-68.74-24.03-100.31-39.09-6.85-3.34-13.7-6.73-20.42-10.31-4.82-2.8-9.18-5.58-14.05-8.17-16.92-9.47-33.74-19.29-49.7-30.34-26.51-18.56-49.68-42.06-68.51-68.37-14.62-22.34-32.95-51.46-29.1-79.09,2.63-20.16,18.89-34.06,37.82-39.61,7.51-2.35,15.35-2.99,23.18-3.78,3.79-.38,7.67-.84,11.47-.86,5.48.02,10.76,1.06,16.18,1.78,20.42,2.51,39.61,7.1,58.76,13.95,20.46,7.44,40.86,15.88,60.28,25.6,22.12,11.27,42.79,25,63.58,38.49,44.91,30.64,88.66,64.92,128.34,101.09,25.49,21.95,50,44.9,74.27,68.2,9.83,9.66,20.46,20.05,29.44,30.1,4.06,4.72,8.42,9.22,11.1,14.92l.08.18c3.94,8.7-.85,14.13-8.69,16.29ZM760.03,439.23c-135.47,12.78-154.93-193.01-26.56-203.56,140.38-11.54,159.43,191.03,26.56,203.56ZM952.59,580.87c-3.26-6.32-6.74-14.15-10.69-20.38-29.93-50.45-73.65-92.58-121.73-125.39-8.3-5.7.37-11.66,5.25-15.63,7.28-5.34,11.87-14.02,17.07-21.39,5.83-8.92,8.08-8.07,14.58-.54,38.5,42.93,74.22,94.48,90.22,150.62l.06.2c2.78,10.46,6.05,21.73,6.29,32.66-.12.8-.47.74-1.04-.14Z"/>
</svg>